# Blender 4.4.1
# www.blender.org
mtllib grade.mtl
o kitchen.008
v -4.114554 0.006547 1.405109
v -4.114554 1.760728 1.405109
v -4.114554 1.760728 -1.395916
v -4.114554 0.006547 -1.395916
v -4.097755 0.006547 -1.395916
v -4.097755 1.760728 -1.395916
v -4.097755 1.760728 1.405109
v -4.097755 0.006547 1.405109
vn 1.0000 -0.0000 -0.0000
vn -1.0000 -0.0000 -0.0000
vt 0.617554 0.740352
vt 0.382446 0.740352
vt 0.382446 0.509648
vt 0.617554 0.509648
vt 0.382446 0.009648
vt 0.617554 0.009648
vt 0.617554 0.240352
vt 0.382446 0.240352
s 1
usemtl Glass
f 7/1/1 8/2/1 5/3/1 6/4/1
f 1/5/2 2/6/2 3/7/2 4/8/2
o kitchen.001
v -4.114553 0.006547 -1.394891
v -4.114553 1.760728 -1.394891
v -4.114553 1.760728 -4.195916
v -4.114553 0.006547 -4.195916
v -4.097754 0.006547 -4.195916
v -4.097754 1.760728 -4.195916
v -4.097754 1.760728 -1.394891
v -4.097754 0.006547 -1.394891
vn 1.0000 -0.0000 -0.0000
vn -1.0000 -0.0000 -0.0000
vt 0.617554 0.740352
vt 0.382446 0.740352
vt 0.382446 0.509648
vt 0.617554 0.509648
vt 0.382446 0.009648
vt 0.617554 0.009648
vt 0.617554 0.240352
vt 0.382446 0.240352
s 1
usemtl Glass
f 15/9/3 16/10/3 13/11/3 14/12/3
f 9/13/4 10/14/4 11/15/4 12/16/4
o kitchen.002
v -4.104554 0.006547 4.205109
v -4.104554 1.760728 4.205109
v -4.104554 1.760728 1.404084
v -4.104554 0.006547 1.404084
v -4.087755 0.006547 1.404084
v -4.087755 1.760728 1.404084
v -4.087755 1.760728 4.205109
v -4.087755 0.006547 4.205109
vn 1.0000 -0.0000 -0.0000
vn -1.0000 -0.0000 -0.0000
vt 0.617554 0.740352
vt 0.382446 0.740352
vt 0.382446 0.509648
vt 0.617554 0.509648
vt 0.382446 0.009648
vt 0.617554 0.009648
vt 0.617554 0.240352
vt 0.382446 0.240352
s 1
usemtl Glass
f 23/17/5 24/18/5 21/19/5 22/20/5
f 17/21/6 18/22/6 19/23/6 20/24/6
o kitchen.003
v 4.315447 0.006547 1.405109
v 4.315447 1.760728 1.405109
v 4.315447 1.760728 -1.395916
v 4.315447 0.006547 -1.395916
v 4.332246 0.006547 -1.395916
v 4.332246 1.760728 -1.395916
v 4.332246 1.760728 1.405109
v 4.332246 0.006547 1.405109
vn 1.0000 -0.0000 -0.0000
vn -1.0000 -0.0000 -0.0000
vt 0.617554 0.740352
vt 0.382446 0.740352
vt 0.382446 0.509648
vt 0.617554 0.509648
vt 0.382446 0.009648
vt 0.617554 0.009648
vt 0.617554 0.240352
vt 0.382446 0.240352
s 1
usemtl Glass
f 31/25/7 32/26/7 29/27/7 30/28/7
f 25/29/8 26/30/8 27/31/8 28/32/8
o kitchen.004
v 1.515108 0.006547 -4.195446
v 1.515108 1.760728 -4.195446
v -1.285916 1.760728 -4.195446
v -1.285916 0.006547 -4.195446
v -1.285916 0.006547 -4.212245
v -1.285916 1.760728 -4.212245
v 1.515108 1.760728 -4.212245
v 1.515108 0.006547 -4.212245
vn -0.0000 -0.0000 -1.0000
vn -0.0000 -0.0000 1.0000
vt 0.617554 0.740352
vt 0.382446 0.740352
vt 0.382446 0.509648
vt 0.617554 0.509648
vt 0.382446 0.009648
vt 0.617554 0.009648
vt 0.617554 0.240352
vt 0.382446 0.240352
s 1
usemtl Glass
f 39/33/9 40/34/9 37/35/9 38/36/9
f 33/37/10 34/38/10 35/39/10 36/40/10
o kitchen.005
v 4.315447 0.006547 -1.394891
v 4.315447 1.760728 -1.394891
v 4.315447 1.760728 -4.195916
v 4.315447 0.006547 -4.195916
v 4.332246 0.006547 -4.195916
v 4.332246 1.760728 -4.195916
v 4.332246 1.760728 -1.394891
v 4.332246 0.006547 -1.394891
vn 1.0000 -0.0000 -0.0000
vn -1.0000 -0.0000 -0.0000
vt 0.617554 0.740352
vt 0.382446 0.740352
vt 0.382446 0.509648
vt 0.617554 0.509648
vt 0.382446 0.009648
vt 0.617554 0.009648
vt 0.617554 0.240352
vt 0.382446 0.240352
s 1
usemtl Glass
f 47/41/11 48/42/11 45/43/11 46/44/11
f 41/45/12 42/46/12 43/47/12 44/48/12
o kitchen.006
v 4.315447 0.006547 4.205109
v 4.315447 1.760728 4.205109
v 4.315447 1.760728 1.404084
v 4.315447 0.006547 1.404084
v 4.332246 0.006547 1.404084
v 4.332246 1.760728 1.404084
v 4.332246 1.760728 4.205109
v 4.332246 0.006547 4.205109
vn 1.0000 -0.0000 -0.0000
vn -1.0000 -0.0000 -0.0000
vt 0.617554 0.740352
vt 0.382446 0.740352
vt 0.382446 0.509648
vt 0.617554 0.509648
vt 0.382446 0.009648
vt 0.617554 0.009648
vt 0.617554 0.240352
vt 0.382446 0.240352
s 1
usemtl Glass
f 55/49/13 56/50/13 53/51/13 54/52/13
f 49/53/14 50/54/14 51/55/14 52/56/14
o kitchen.007
v -1.284892 0.006547 -4.195446
v -1.284892 1.760728 -4.195446
v -4.085917 1.760728 -4.195446
v -4.085917 0.006547 -4.195446
v -4.085917 0.006547 -4.212245
v -4.085917 1.760728 -4.212245
v -1.284892 1.760728 -4.212245
v -1.284892 0.006547 -4.212245
vn -0.0000 -0.0000 -1.0000
vn -0.0000 -0.0000 1.0000
vt 0.617554 0.740352
vt 0.382446 0.740352
vt 0.382446 0.509648
vt 0.617554 0.509648
vt 0.382446 0.009648
vt 0.617554 0.009648
vt 0.617554 0.240352
vt 0.382446 0.240352
s 1
usemtl Glass
f 63/57/15 64/58/15 61/59/15 62/60/15
f 57/61/16 58/62/16 59/63/16 60/64/16
o kitchen.009
v 4.315109 0.006547 -4.195446
v 4.315109 1.760728 -4.195446
v 1.514084 1.760728 -4.195446
v 1.514084 0.006547 -4.195446
v 1.514084 0.006547 -4.212245
v 1.514084 1.760728 -4.212245
v 4.315109 1.760728 -4.212245
v 4.315109 0.006547 -4.212245
vn -0.0000 -0.0000 -1.0000
vn -0.0000 -0.0000 1.0000
vt 0.617554 0.740352
vt 0.382446 0.740352
vt 0.382446 0.509648
vt 0.617554 0.509648
vt 0.382446 0.009648
vt 0.617554 0.009648
vt 0.617554 0.240352
vt 0.382446 0.240352
s 1
usemtl Glass
f 71/65/17 72/66/17 69/67/17 70/68/17
f 65/69/18 66/70/18 67/71/18 68/72/18
o kitchen.010
v 4.315109 0.006547 4.214553
v 4.315109 1.760728 4.214553
v 1.514084 1.760728 4.214553
v 1.514084 0.006547 4.214553
v 1.514084 0.006547 4.197754
v 1.514084 1.760728 4.197754
v 4.315109 1.760728 4.197754
v 4.315109 0.006547 4.197754
vn -0.0000 -0.0000 -1.0000
vn -0.0000 -0.0000 1.0000
vt 0.617554 0.740352
vt 0.382446 0.740352
vt 0.382446 0.509648
vt 0.617554 0.509648
vt 0.382446 0.009648
vt 0.617554 0.009648
vt 0.617554 0.240352
vt 0.382446 0.240352
s 1
usemtl Glass
f 79/73/19 80/74/19 77/75/19 78/76/19
f 73/77/20 74/78/20 75/79/20 76/80/20
o kitchen.011
v 1.515108 0.006547 4.214553
v 1.515108 1.760728 4.214553
v -1.285916 1.760728 4.214553
v -1.285916 0.006547 4.214553
v -1.285916 0.006547 4.197754
v -1.285916 1.760728 4.197754
v 1.515108 1.760728 4.197754
v 1.515108 0.006547 4.197754
vn -0.0000 -0.0000 -1.0000
vn -0.0000 -0.0000 1.0000
vt 0.617554 0.740352
vt 0.382446 0.740352
vt 0.382446 0.509648
vt 0.617554 0.509648
vt 0.382446 0.009648
vt 0.617554 0.009648
vt 0.617554 0.240352
vt 0.382446 0.240352
s 1
usemtl Glass
f 87/81/21 88/82/21 85/83/21 86/84/21
f 81/85/22 82/86/22 83/87/22 84/88/22
o kitchen.012
v -1.284892 0.006547 4.214553
v -1.284892 1.760728 4.214553
v -4.085917 1.760728 4.214553
v -4.085917 0.006547 4.214553
v -4.085917 0.006547 4.197754
v -4.085917 1.760728 4.197754
v -1.284892 1.760728 4.197754
v -1.284892 0.006547 4.197754
vn -0.0000 -0.0000 -1.0000
vn -0.0000 -0.0000 1.0000
vt 0.617554 0.740352
vt 0.382446 0.740352
vt 0.382446 0.509648
vt 0.617554 0.509648
vt 0.382446 0.009648
vt 0.617554 0.009648
vt 0.617554 0.240352
vt 0.382446 0.240352
s 1
usemtl Glass
f 95/89/23 96/90/23 93/91/23 94/92/23
f 89/93/24 90/94/24 91/95/24 92/96/24
